<svg viewBox="0 0 26 26" xml:space="preserve" xmlns="http://www.w3.org/2000/svg"><path d="M24.25 2.59h-2.836c-.027 0-.05.012-.076.015a.716.716 0 0 0-.496.266.723.723 0 0 0-.135.258c-.008.027-.026.048-.03.076l-.43 2.347L1.893 6.625c-.07-.005-.132.005-.21.013a.75.75 0 0 0-.669.892l1.279 6.975c.292 1.081 1.193 2.173 2.548 2.173h13.37l-.286 1.565H6.675a2.587 2.587 0 0 0-2.584 2.583c0 1.425 1.16 2.584 2.584 2.584s2.583-1.159 2.583-2.584c0-.388-.092-.753-.246-1.083h6.908c-.154.33-.246.695-.246 1.083 0 1.425 1.159 2.584 2.583 2.584s2.584-1.159 2.584-2.584a2.578 2.578 0 0 0-1.442-2.306l2.64-14.43h2.211a.75.75 0 0 0 0-1.5zm-5.228 9.655-3.178.05.173-1.842 3.351-.1-.346 1.892zM3.144 10.839l3.176-.095.208 1.697-3.082.048-.302-1.65zm4.18-.126 3.49-.104v1.765l-3.28.051-.21-1.712zm3.49-1.105-3.613.108-.23-1.885 3.843-.225v2.002zm1-2.06 3.49-.204-.2 2.135-3.29.099v-2.03zm-1 5.826v1.804H7.87l-.215-1.754 3.16-.05zm1-.016 2.93-.046-.176 1.866h-2.754v-1.82zm0-1v-1.78l3.196-.095-.172 1.827-3.024.048zm7.739-3.012-3.442.103.204-2.164 3.654-.214-.416 2.275zM5.97 7.889l.227 1.857-3.236.097a78.876 78.876 0 0 0-.337-1.758l3.346-.196zm-2.216 6.285-.126-.687 3.021-.048.213 1.74H4.841c-.642 0-1-.697-1.086-1.005zm11.818 1.004.177-1.882 3.089-.048-.354 1.93h-2.912zm-7.815 5.648c0 .598-.486 1.084-1.083 1.084s-1.084-.486-1.084-1.084a1.084 1.084 0 0 1 2.167 0zm10.5 1.084a1.085 1.085 0 0 1 0-2.167 1.084 1.084 0 0 1 0 2.167z" fill="#000000" class="fill-1d1d1b"></path></svg>